{
  "accessors": [
    {
      "bufferView": 2,
      "componentType": 5126,
      "count": 1994,
      "max": [
        14.07610034942627,
        11.124897003173828,
        20.713199615478516
      ],
      "min": [
        -16.34980010986328,
        -14.175002098083496,
        -0.1525229960680008
      ],
      "type": "VEC3"
    },
    {
      "bufferView": 2,
      "byteOffset": 23928,
      "componentType": 5126,
      "count": 1994,
      "max": [
        0.9935441613197327,
        0.9992191791534424,
        0.9999948740005493
      ],
      "min": [
        -0.9901050925254822,
        -0.9900367259979248,
        -0.9997299313545227
      ],
      "type": "VEC3"
    },
    {
      "bufferView": 3,
      "componentType": 5126,
      "count": 1994,
      "max": [
        0.9978241324424744,
        0.9876084923744202,
        0.9993866086006165,
        1.0
      ],
      "min": [
        -0.8965787291526794,
        -0.9937261343002319,
        -0.8950322866439819,
        -1.0
      ],
      "type": "VEC4"
    },
    {
      "bufferView": 1,
      "componentType": 5126,
      "count": 1994,
      "max": [
        0.4940960109233856,
        0.9951260089874268
      ],
      "min": [
        0.004110000096261501,
        0.5048969984054565
      ],
      "type": "VEC2"
    },
    {
      "bufferView": 0,
      "componentType": 5125,
      "count": 10452,
      "type": "SCALAR"
    },
    {
      "bufferView": 2,
      "byteOffset": 47856,
      "componentType": 5126,
      "count": 1914,
      "max": [
        53.1328010559082,
        11.60770034790039,
        22.15150260925293
      ],
      "min": [
        24.741500854492188,
        -9.423624038696289,
        -0.043244000524282455
      ],
      "type": "VEC3"
    },
    {
      "bufferView": 2,
      "byteOffset": 70824,
      "componentType": 5126,
      "count": 1914,
      "max": [
        0.9999992847442627,
        0.9998794794082642,
        0.9960588216781616
      ],
      "min": [
        -0.940929651260376,
        -0.9988566637039185,
        -0.9997983574867249
      ],
      "type": "VEC3"
    },
    {
      "bufferView": 3,
      "byteOffset": 31904,
      "componentType": 5126,
      "count": 1914,
      "max": [
        0.9993470311164856,
        0.997769832611084,
        0.9974388480186462,
        1.0
      ],
      "min": [
        -0.9847187995910645,
        -0.9397203922271729,
        -0.9620196223258972,
        -1.0
      ],
      "type": "VEC4"
    },
    {
      "bufferView": 1,
      "byteOffset": 15952,
      "componentType": 5126,
      "count": 1914,
      "max": [
        0.9965010285377502,
        0.9944509863853455
      ],
      "min": [
        0.5036730170249939,
        0.5060499906539917
      ],
      "type": "VEC2"
    },
    {
      "bufferView": 0,
      "byteOffset": 41808,
      "componentType": 5125,
      "count": 10128,
      "type": "SCALAR"
    },
    {
      "bufferView": 2,
      "byteOffset": 93792,
      "componentType": 5126,
      "count": 1633,
      "max": [
        13.624809265136719,
        -23.612699508666992,
        14.372900009155273
      ],
      "min": [
        -13.937393188476563,
        -57.976200103759766,
        -0.2792679965496063
      ],
      "type": "VEC3"
    },
    {
      "bufferView": 2,
      "byteOffset": 113388,
      "componentType": 5126,
      "count": 1633,
      "max": [
        0.9916680455207825,
        0.9999967813491821,
        0.9999675750732422
      ],
      "min": [
        -0.9994093179702759,
        -0.9892978668212891,
        -0.9996992945671082
      ],
      "type": "VEC3"
    },
    {
      "bufferView": 3,
      "byteOffset": 62528,
      "componentType": 5126,
      "count": 1633,
      "max": [
        0.905603289604187,
        0.9999266266822815,
        0.9607731103897095,
        1.0
      ],
      "min": [
        -0.9907687902450562,
        -0.6797835230827332,
        -0.9989721775054932,
        1.0
      ],
      "type": "VEC4"
    },
    {
      "bufferView": 1,
      "byteOffset": 31264,
      "componentType": 5126,
      "count": 1633,
      "max": [
        0.4940339922904968,
        0.4964030086994171
      ],
      "min": [
        0.005350000225007534,
        0.007644999772310257
      ],
      "type": "VEC2"
    },
    {
      "bufferView": 0,
      "byteOffset": 82320,
      "componentType": 5125,
      "count": 8850,
      "type": "SCALAR"
    },
    {
      "bufferView": 2,
      "byteOffset": 132984,
      "componentType": 5126,
      "count": 2303,
      "max": [
        47.46685791015625,
        -24.712299346923828,
        13.688701629638672
      ],
      "min": [
        29.734603881835938,
        -57.181602478027344,
        -0.06941299885511398
      ],
      "type": "VEC3"
    },
    {
      "bufferView": 2,
      "byteOffset": 160620,
      "componentType": 5126,
      "count": 2303,
      "max": [
        0.9997071623802185,
        0.9877135157585144,
        0.9998368620872498
      ],
      "min": [
        -0.9991289973258972,
        -0.9911311864852905,
        -0.999984860420227
      ],
      "type": "VEC3"
    },
    {
      "bufferView": 3,
      "byteOffset": 88656,
      "componentType": 5126,
      "count": 2303,
      "max": [
        0.9984915256500244,
        0.999967098236084,
        0.9233793616294861,
        1.0
      ],
      "min": [
        -0.7512624859809875,
        -0.9999745488166809,
        -0.9997806549072266,
        1.0
      ],
      "type": "VEC4"
    },
    {
      "bufferView": 1,
      "byteOffset": 44328,
      "componentType": 5126,
      "count": 2303,
      "max": [
        0.990667998790741,
        0.4959839880466461
      ],
      "min": [
        0.5067269802093506,
        0.0069240001030266285
      ],
      "type": "VEC2"
    },
    {
      "bufferView": 0,
      "byteOffset": 117720,
      "componentType": 5125,
      "count": 12498,
      "type": "SCALAR"
    }
  ],
  "asset": {
    "extras": {
      "author": "Kathrin&Christian (https://sketchfab.com/extracrispi)",
      "license": "CC-BY-4.0 (http://creativecommons.org/licenses/by/4.0/)",
      "source": "https://sketchfab.com/3d-models/rocks-4-pieces-a3db6dd1c31b4c63a8ce372d470bdf5d",
      "title": "Rocks (4 pieces)"
    },
    "generator": "Sketchfab-12.66.0",
    "version": "2.0"
  },
  "bufferViews": [
    {
      "buffer": 0,
      "byteLength": 167712,
      "name": "floatBufferViews",
      "target": 34963
    },
    {
      "buffer": 0,
      "byteLength": 62752,
      "byteOffset": 167712,
      "byteStride": 8,
      "name": "floatBufferViews",
      "target": 34962
    },
    {
      "buffer": 0,
      "byteLength": 188256,
      "byteOffset": 230464,
      "byteStride": 12,
      "name": "floatBufferViews",
      "target": 34962
    },
    {
      "buffer": 0,
      "byteLength": 125504,
      "byteOffset": 418720,
      "byteStride": 16,
      "name": "floatBufferViews",
      "target": 34962
    }
  ],
  "buffers": [
    {
      "byteLength": 544224,
      "uri": "scene.bin"
    }
  ],
  "images": [
    {
      "uri": "textures/Material.001_baseColor.jpeg"
    },
    {
      "uri": "textures/Material.001_metallicRoughness.png"
    },
    {
      "uri": "textures/Material.001_normal.jpeg"
    }
  ],
  "materials": [
    {
      "doubleSided": true,
      "name": "Material.001",
      "normalTexture": {
        "index": 2
      },
      "occlusionTexture": {
        "index": 1
      },
      "pbrMetallicRoughness": {
        "baseColorTexture": {
          "index": 0
        },
        "metallicFactor": 0.0,
        "metallicRoughnessTexture": {
          "index": 1
        },
        "roughnessFactor": 0.6321453210079309
      }
    },
    {
      "doubleSided": true,
      "name": "Material.002",
      "normalTexture": {
        "index": 2
      },
      "occlusionTexture": {
        "index": 1
      },
      "pbrMetallicRoughness": {
        "baseColorTexture": {
          "index": 0
        },
        "metallicFactor": 0.0,
        "metallicRoughnessTexture": {
          "index": 1
        },
        "roughnessFactor": 0.6
      }
    },
    {
      "doubleSided": true,
      "name": "Material.003",
      "normalTexture": {
        "index": 2
      },
      "occlusionTexture": {
        "index": 1
      },
      "pbrMetallicRoughness": {
        "baseColorTexture": {
          "index": 0
        },
        "metallicFactor": 0.0,
        "metallicRoughnessTexture": {
          "index": 1
        },
        "roughnessFactor": 0.6321453210079309
      }
    },
    {
      "doubleSided": true,
      "name": "Material.004",
      "normalTexture": {
        "index": 2
      },
      "occlusionTexture": {
        "index": 1
      },
      "pbrMetallicRoughness": {
        "baseColorTexture": {
          "index": 0
        },
        "metallicFactor": 0.0,
        "metallicRoughnessTexture": {
          "index": 1
        },
        "roughnessFactor": 0.6
      }
    }
  ],
  "meshes": [
    {
      "name": "Object_0",
      "primitives": [
        {
          "attributes": {
            "NORMAL": 1,
            "POSITION": 0,
            "TANGENT": 2,
            "TEXCOORD_0": 3
          },
          "indices": 4,
          "material": 0,
          "mode": 4
        }
      ]
    },
    {
      "name": "Object_1",
      "primitives": [
        {
          "attributes": {
            "NORMAL": 6,
            "POSITION": 5,
            "TANGENT": 7,
            "TEXCOORD_0": 8
          },
          "indices": 9,
          "material": 1,
          "mode": 4
        }
      ]
    },
    {
      "name": "Object_2",
      "primitives": [
        {
          "attributes": {
            "NORMAL": 11,
            "POSITION": 10,
            "TANGENT": 12,
            "TEXCOORD_0": 13
          },
          "indices": 14,
          "material": 2,
          "mode": 4
        }
      ]
    },
    {
      "name": "Object_3",
      "primitives": [
        {
          "attributes": {
            "NORMAL": 16,
            "POSITION": 15,
            "TANGENT": 17,
            "TEXCOORD_0": 18
          },
          "indices": 19,
          "material": 3,
          "mode": 4
        }
      ]
    }
  ],
  "nodes": [
    {
      "children": [
        1
      ],
      "matrix": [
        1.0,
        0.0,
        0.0,
        0.0,
        0.0,
        2.220446049250313e-16,
        -1.0,
        0.0,
        0.0,
        1.0,
        2.220446049250313e-16,
        0.0,
        0.0,
        0.0,
        0.0,
        1.0
      ],
      "name": "Sketchfab_model"
    },
    {
      "children": [
        2,
        3,
        4,
        5
      ],
      "name": "rocks.obj.cleaner.materialmerger.gles"
    },
    {
      "mesh": 0,
      "name": "Object_2"
    },
    {
      "mesh": 1,
      "name": "Object_3"
    },
    {
      "mesh": 2,
      "name": "Object_4"
    },
    {
      "mesh": 3,
      "name": "Object_5"
    }
  ],
  "samplers": [
    {
      "magFilter": 9729,
      "minFilter": 9987,
      "wrapS": 10497,
      "wrapT": 10497
    }
  ],
  "scene": 0,
  "scenes": [
    {
      "name": "Sketchfab_Scene",
      "nodes": [
        0
      ]
    }
  ],
  "textures": [
    {
      "sampler": 0,
      "source": 0
    },
    {
      "sampler": 0,
      "source": 1
    },
    {
      "sampler": 0,
      "source": 2
    }
  ]
}
